<svg xmlns="http://www.w3.org/2000/svg" viewBox="0 0 900 900" preserveAspectRatio="xMidYMid slice">
<defs><filter id="g34"><feTurbulence type="fractalNoise" baseFrequency="0.95" numOctaves="2" stitchTiles="stitch" seed="34"/><feColorMatrix values="0 0 0 0 0  0 0 0 0 0  0 0 0 0 0  0 0 0 0.16 0"/></filter><filter id="bl"><feGaussianBlur stdDeviation="55"/></filter></defs>
<rect width="900" height="900" fill="#1F1714"/>
<g opacity="0.7" filter="url(#bl)"><circle cx="450" cy="450" r="300" fill="#D9582B" opacity="0.35"/></g>
<g transform="translate(450 480)" opacity="0.85" stroke="#E2D2A8" stroke-width="3" fill="none" stroke-linecap="round">
  <!-- wheels -->
  <circle cx="-180" cy="80" r="115"/>
  <circle cx="180"  cy="80" r="115"/>
  <!-- frame triangle -->
  <line x1="-180" y1="80" x2="-30" y2="-90"/>
  <line x1="-30" y1="-90" x2="120" y2="-90"/>
  <line x1="120" y1="-90" x2="180" y2="80"/>
  <line x1="-30" y1="-90" x2="50" y2="80"/>
  <line x1="50" y1="80" x2="180" y2="80"/>
  <line x1="50" y1="80" x2="-180" y2="80"/>
  <!-- seat post + saddle -->
  <line x1="50" y1="80" x2="80" y2="-110"/>
  <path d="M 40 -110 Q 80 -120 130 -110"/>
  <!-- handlebar -->
  <line x1="120" y1="-90" x2="200" y2="-140"/>
  <path d="M 180 -150 Q 220 -150 200 -110"/>
  <!-- pedal/spokes hint -->
  <circle cx="0" cy="80" r="18"/>
</g>
<rect width="100%" height="100%" filter="url(#g34)" opacity="0.55"/>
</svg>