<svg xmlns="http://www.w3.org/2000/svg" viewBox="0 0 900 900" preserveAspectRatio="xMidYMid slice">
<defs><filter id="g36"><feTurbulence type="fractalNoise" baseFrequency="0.95" numOctaves="2" stitchTiles="stitch" seed="36"/><feColorMatrix values="0 0 0 0 0  0 0 0 0 0  0 0 0 0 0  0 0 0 0.16 0"/></filter><filter id="bl"><feGaussianBlur stdDeviation="55"/></filter></defs>
<rect width="900" height="900" fill="#1F1714"/>
<g opacity="0.75" filter="url(#bl)"><circle cx="450" cy="450" r="280" fill="#75301A" opacity="0.40"/></g>
<rect x="180" y="180" width="540" height="540" fill="none" stroke="#D8B458" stroke-width="4"/>
<rect x="160" y="160" width="580" height="580" fill="none" stroke="#D8B458" stroke-width="1" opacity="0.55"/>
<g transform="translate(450 470)">
<circle cx="0" cy="0" r="160" fill="none" stroke="#E2D2A8" stroke-width="2" opacity="0.7"/><circle cx="0" cy="0" r="148" fill="none" stroke="#E2D2A8" stroke-width="0.6" opacity="0.35"/><circle cx="0" cy="0" r="14" fill="#181210" stroke="#D8B458" stroke-width="1.6" opacity="0.7"/><line x1="0" y1="0" x2="160.0" y2="0.0" stroke="#E2D2A8" stroke-width="0.55" opacity="0.48999999999999994"/><line x1="0" y1="0" x2="154.5" y2="41.4" stroke="#E2D2A8" stroke-width="0.55" opacity="0.48999999999999994"/><line x1="0" y1="0" x2="138.6" y2="80.0" stroke="#E2D2A8" stroke-width="0.55" opacity="0.48999999999999994"/><line x1="0" y1="0" x2="113.1" y2="113.1" stroke="#E2D2A8" stroke-width="0.55" opacity="0.48999999999999994"/><line x1="0" y1="0" x2="80.0" y2="138.6" stroke="#E2D2A8" stroke-width="0.55" opacity="0.48999999999999994"/><line x1="0" y1="0" x2="41.4" y2="154.5" stroke="#E2D2A8" stroke-width="0.55" opacity="0.48999999999999994"/><line x1="0" y1="0" x2="0.0" y2="160.0" stroke="#E2D2A8" stroke-width="0.55" opacity="0.48999999999999994"/><line x1="0" y1="0" x2="-41.4" y2="154.5" stroke="#E2D2A8" stroke-width="0.55" opacity="0.48999999999999994"/><line x1="0" y1="0" x2="-80.0" y2="138.6" stroke="#E2D2A8" stroke-width="0.55" opacity="0.48999999999999994"/><line x1="0" y1="0" x2="-113.1" y2="113.1" stroke="#E2D2A8" stroke-width="0.55" opacity="0.48999999999999994"/><line x1="0" y1="0" x2="-138.6" y2="80.0" stroke="#E2D2A8" stroke-width="0.55" opacity="0.48999999999999994"/><line x1="0" y1="0" x2="-154.5" y2="41.4" stroke="#E2D2A8" stroke-width="0.55" opacity="0.48999999999999994"/><line x1="0" y1="0" x2="-160.0" y2="0.0" stroke="#E2D2A8" stroke-width="0.55" opacity="0.48999999999999994"/><line x1="0" y1="0" x2="-154.5" y2="-41.4" stroke="#E2D2A8" stroke-width="0.55" opacity="0.48999999999999994"/><line x1="0" y1="0" x2="-138.6" y2="-80.0" stroke="#E2D2A8" stroke-width="0.55" opacity="0.48999999999999994"/><line x1="0" y1="0" x2="-113.1" y2="-113.1" stroke="#E2D2A8" stroke-width="0.55" opacity="0.48999999999999994"/><line x1="0" y1="0" x2="-80.0" y2="-138.6" stroke="#E2D2A8" stroke-width="0.55" opacity="0.48999999999999994"/><line x1="0" y1="0" x2="-41.4" y2="-154.5" stroke="#E2D2A8" stroke-width="0.55" opacity="0.48999999999999994"/><line x1="0" y1="0" x2="-0.0" y2="-160.0" stroke="#E2D2A8" stroke-width="0.55" opacity="0.48999999999999994"/><line x1="0" y1="0" x2="41.4" y2="-154.5" stroke="#E2D2A8" stroke-width="0.55" opacity="0.48999999999999994"/><line x1="0" y1="0" x2="80.0" y2="-138.6" stroke="#E2D2A8" stroke-width="0.55" opacity="0.48999999999999994"/><line x1="0" y1="0" x2="113.1" y2="-113.1" stroke="#E2D2A8" stroke-width="0.55" opacity="0.48999999999999994"/><line x1="0" y1="0" x2="138.6" y2="-80.0" stroke="#E2D2A8" stroke-width="0.55" opacity="0.48999999999999994"/><line x1="0" y1="0" x2="154.5" y2="-41.4" stroke="#E2D2A8" stroke-width="0.55" opacity="0.48999999999999994"/>
</g>
<text x="450" y="660" font-family="serif" font-size="34" font-style="italic" text-anchor="middle" fill="#F3E9CC" letter-spacing="6">EST · 2015 · BCN</text>
<rect width="100%" height="100%" filter="url(#g36)" opacity="0.55"/>
</svg>