<svg xmlns="http://www.w3.org/2000/svg" viewBox="0 0 800 1000" preserveAspectRatio="xMidYMid slice">
<defs>
  <filter id="grain"><feTurbulence type="fractalNoise" baseFrequency="0.95" numOctaves="2" stitchTiles="stitch" seed="5"/><feColorMatrix values="0 0 0 0 0  0 0 0 0 0  0 0 0 0 0  0 0 0 0.18 0"/></filter>
  <filter id="blur"><feGaussianBlur stdDeviation="60"/></filter>
  
</defs>
<rect width="800" height="1000" fill="#15110E"/>
<g opacity="0.65" filter="url(#blur)">
<circle cx="579" cy="507" r="173" fill="#8B3A1A" opacity="0.35"/>
<circle cx="241" cy="219" r="224" fill="#8B3A1A" opacity="0.40"/>
<circle cx="234" cy="167" r="149" fill="#9B7926" opacity="0.30"/>
</g>
<g transform="translate(400 500) rotate(30)" opacity="0.78">
  <circle r="220" fill="none" stroke="#DDD2BC" stroke-width="2"/>
  <circle r="200" fill="none" stroke="#DDD2BC" stroke-width="0.5" opacity="0.4"/>
  <circle r="20" fill="#0E0B09" stroke="#C49A3C" stroke-width="2"/>
  <line x1="0" y1="0" x2="220.0" y2="0.0" stroke="#DDD2BC" stroke-width="0.6"/><line x1="0" y1="0" x2="212.5" y2="56.9" stroke="#DDD2BC" stroke-width="0.6"/><line x1="0" y1="0" x2="190.5" y2="110.0" stroke="#DDD2BC" stroke-width="0.6"/><line x1="0" y1="0" x2="155.6" y2="155.6" stroke="#DDD2BC" stroke-width="0.6"/><line x1="0" y1="0" x2="110.0" y2="190.5" stroke="#DDD2BC" stroke-width="0.6"/><line x1="0" y1="0" x2="56.9" y2="212.5" stroke="#DDD2BC" stroke-width="0.6"/><line x1="0" y1="0" x2="0.0" y2="220.0" stroke="#DDD2BC" stroke-width="0.6"/><line x1="0" y1="0" x2="-56.9" y2="212.5" stroke="#DDD2BC" stroke-width="0.6"/><line x1="0" y1="0" x2="-110.0" y2="190.5" stroke="#DDD2BC" stroke-width="0.6"/><line x1="0" y1="0" x2="-155.6" y2="155.6" stroke="#DDD2BC" stroke-width="0.6"/><line x1="0" y1="0" x2="-190.5" y2="110.0" stroke="#DDD2BC" stroke-width="0.6"/><line x1="0" y1="0" x2="-212.5" y2="56.9" stroke="#DDD2BC" stroke-width="0.6"/><line x1="0" y1="0" x2="-220.0" y2="0.0" stroke="#DDD2BC" stroke-width="0.6"/><line x1="0" y1="0" x2="-212.5" y2="-56.9" stroke="#DDD2BC" stroke-width="0.6"/><line x1="0" y1="0" x2="-190.5" y2="-110.0" stroke="#DDD2BC" stroke-width="0.6"/><line x1="0" y1="0" x2="-155.6" y2="-155.6" stroke="#DDD2BC" stroke-width="0.6"/><line x1="0" y1="0" x2="-110.0" y2="-190.5" stroke="#DDD2BC" stroke-width="0.6"/><line x1="0" y1="0" x2="-56.9" y2="-212.5" stroke="#DDD2BC" stroke-width="0.6"/><line x1="0" y1="0" x2="-0.0" y2="-220.0" stroke="#DDD2BC" stroke-width="0.6"/><line x1="0" y1="0" x2="56.9" y2="-212.5" stroke="#DDD2BC" stroke-width="0.6"/><line x1="0" y1="0" x2="110.0" y2="-190.5" stroke="#DDD2BC" stroke-width="0.6"/><line x1="0" y1="0" x2="155.6" y2="-155.6" stroke="#DDD2BC" stroke-width="0.6"/><line x1="0" y1="0" x2="190.5" y2="-110.0" stroke="#DDD2BC" stroke-width="0.6"/><line x1="0" y1="0" x2="212.5" y2="-56.9" stroke="#DDD2BC" stroke-width="0.6"/>
</g>
<rect width="800" height="1000" fill="url(#vigT8)"/>
<defs><radialGradient id="vigT8" cx="50%" cy="50%" r="78%">
  <stop offset="0" stop-color="#000" stop-opacity="0"/>
  <stop offset="1" stop-color="#000" stop-opacity="0.78"/>
</radialGradient></defs>
<rect width="100%" height="100%" filter="url(#grain)" opacity="0.55"/>
</svg>